<svg width="16" height="16" viewBox="0 0 16 16" fill="none" xmlns="http://www.w3.org/2000/svg">
<mask id="mask0_22667_783" style="mask-type:alpha" maskUnits="userSpaceOnUse" x="0" y="0" width="16" height="16">
<rect width="16" height="16" fill="#D9D9D9"/>
</mask>
<g mask="url(#mask0_22667_783)">
<path d="M7.49935 8.50032H4.16602C4.02435 8.50032 3.90563 8.45238 3.80985 8.35649C3.71396 8.2606 3.66602 8.14182 3.66602 8.00016C3.66602 7.85838 3.71396 7.73966 3.80985 7.64399C3.90563 7.54821 4.02435 7.50032 4.16602 7.50032H7.49935V4.16699C7.49935 4.02533 7.54729 3.9066 7.64318 3.81083C7.73907 3.71494 7.85785 3.66699 7.99951 3.66699C8.14129 3.66699 8.26001 3.71494 8.35568 3.81083C8.45146 3.9066 8.49935 4.02533 8.49935 4.16699V7.50032H11.8327C11.9743 7.50032 12.0931 7.54827 12.1888 7.64416C12.2847 7.74005 12.3327 7.85882 12.3327 8.00049C12.3327 8.14227 12.2847 8.26099 12.1888 8.35666C12.0931 8.45244 11.9743 8.50032 11.8327 8.50032H8.49935V11.8337C8.49935 11.9753 8.4514 12.094 8.35551 12.1898C8.25962 12.2857 8.14085 12.3337 7.99918 12.3337C7.8574 12.3337 7.73868 12.2857 7.64301 12.1898C7.54724 12.094 7.49935 11.9753 7.49935 11.8337V8.50032Z" fill="white"/>
</g>
</svg>
