<svg width="20" height="20" viewBox="0 0 20 20" fill="none" xmlns="http://www.w3.org/2000/svg">
<mask id="mask0_20910_1572" style="mask-type:alpha" maskUnits="userSpaceOnUse" x="0" y="0" width="20" height="20">
<rect width="20" height="20" fill="#D9D9D9"/>
</mask>
<g mask="url(#mask0_20910_1572)">
<path d="M10.0003 12.4793C9.88921 12.4793 9.78505 12.462 9.68783 12.4272C9.5906 12.3925 9.50033 12.3335 9.41699 12.2502L5.58366 8.41683C5.43088 8.26405 5.35449 8.06961 5.35449 7.8335C5.35449 7.59738 5.43088 7.40294 5.58366 7.25016C5.73644 7.09738 5.93088 7.021 6.16699 7.021C6.4031 7.021 6.59755 7.09738 6.75033 7.25016L10.0003 10.5002L13.2503 7.25016C13.4031 7.09738 13.5975 7.021 13.8337 7.021C14.0698 7.021 14.2642 7.09738 14.417 7.25016C14.5698 7.40294 14.6462 7.59738 14.6462 7.8335C14.6462 8.06961 14.5698 8.26405 14.417 8.41683L10.5837 12.2502C10.5003 12.3335 10.41 12.3925 10.3128 12.4272C10.2156 12.462 10.1114 12.4793 10.0003 12.4793Z" fill="white"/>
</g>
</svg>
